<svg width="56" height="56" viewBox="0 0 56 56" fill="none" xmlns="http://www.w3.org/2000/svg">
<rect width="56" height="56" fill="white"/>
<path d="M10.3971 13.1974C14.272 15.4318 10.9179 21.2496 7.03773 19.01C3.15746 16.7756 6.5169 10.9578 10.3971 13.1974Z" fill="#F87070"/>
<path d="M20.0064 6.0412C22.246 9.92147 16.4282 13.2808 14.1886 9.40053C11.949 5.5256 17.7668 2.16613 20.0064 6.0412Z" fill="#F87070"/>
<path d="M27.1931 14.4321C25.3337 14.4321 23.8337 15.9373 23.8337 17.7915V26.1925C23.8337 27.9737 24.5421 29.6821 25.7973 30.9425C27.0578 32.1977 28.7661 32.9061 30.5473 32.9061H37.2661C38.1568 32.9061 39.0109 32.552 39.6411 31.9218C40.2713 31.2915 40.6254 30.4374 40.6254 29.5468C40.6254 28.6562 40.2713 27.802 39.6411 27.1719C39.0109 26.5417 38.1567 26.1927 37.2661 26.1927H30.5473V17.7917C30.5473 16.901 30.1932 16.0469 29.5682 15.4167C28.938 14.7865 28.0836 14.4321 27.1931 14.4321Z" fill="#F87070"/>
<path d="M28.8704 1.00013C28.2819 0.994922 27.7037 1.14597 27.1933 1.43763C25.86 2.19284 25.2089 3.75016 25.5996 5.22402C25.9954 6.70322 27.3392 7.72922 28.8704 7.71882C34.2141 7.71882 39.3392 9.83856 43.1211 13.6199C46.9029 17.4012 49.0221 22.5262 49.0221 27.8706C49.0221 33.215 46.9024 38.3394 43.1211 42.1212C39.3397 45.9031 34.2148 48.0223 28.8704 48.0223C23.526 48.0223 18.4016 45.9026 14.6197 42.1212C10.8379 38.3399 8.71867 33.215 8.71867 27.8706C8.71867 26.0164 7.21347 24.5112 5.35933 24.5112C3.5052 24.5112 2 26.0164 2 27.8706C2 34.9956 4.82813 41.8292 9.86973 46.8706C14.9061 51.907 21.7447 54.7403 28.8697 54.7403C35.9948 54.7403 42.8284 51.907 47.8697 46.8706C52.9061 41.829 55.7395 34.9956 55.7395 27.8706C55.7395 20.7455 52.9061 13.9066 47.8697 8.87056C42.8281 3.82896 35.9955 1.00013 28.8704 1.00013Z" fill="#F87070"/>
</svg>
